<svg width="12" height="12" viewBox="0 0 12 12" fill="none" xmlns="http://www.w3.org/2000/svg">
<path d="M1.5017 2.11961C1.50011 2.11439 1.50001 2.11198 1.5 2.11127C1.5 2.11078 1.49999 2.10822 1.5017 2.10262C1.50358 2.09642 1.50824 2.08419 1.51949 2.06587C1.54307 2.02746 1.59115 1.96971 1.68124 1.89871C1.86468 1.75415 2.16453 1.59967 2.58459 1.45965C3.4189 1.18154 4.60683 1 5.94445 1C7.28206 1 8.46999 1.18154 9.3043 1.45965C9.72436 1.59967 10.0242 1.75415 10.2076 1.89871C10.2977 1.96971 10.3458 2.02746 10.3694 2.06587C10.3807 2.08419 10.3853 2.09642 10.3872 2.10262C10.3889 2.10821 10.3889 2.11058 10.3889 2.11111C10.3889 2.11176 10.3888 2.11429 10.3872 2.11961C10.3853 2.1258 10.3807 2.13803 10.3694 2.15635C10.3458 2.19476 10.2977 2.25252 10.2076 2.32351C10.0242 2.46807 9.72436 2.62256 9.3043 2.76258C8.46999 3.04068 7.28206 3.22222 5.94445 3.22222C4.60683 3.22222 3.4189 3.04068 2.58459 2.76258C2.16453 2.62256 1.86468 2.46807 1.68124 2.32351C1.59115 2.25252 1.54307 2.19476 1.51949 2.15635C1.50824 2.13803 1.50358 2.1258 1.5017 2.11961Z" fill="#808593"/>
<path d="M10.3889 3.96881C10.3889 3.76122 10.1679 3.62435 9.97488 3.70074C9.87158 3.74162 9.76495 3.78024 9.65566 3.81667C8.68033 4.14178 7.36825 4.33333 5.94445 4.33333C4.52064 4.33333 3.20856 4.14178 2.23323 3.81667C2.12394 3.78024 2.01731 3.74162 1.91401 3.70074C1.72098 3.62435 1.5 3.76122 1.5 3.96881V6C1.5 6.00105 1.50005 6.00391 1.50189 6.01001C1.50386 6.01653 1.50858 6.02894 1.51976 6.04729C1.54318 6.08571 1.59082 6.14331 1.6801 6.21406C1.86199 6.35819 2.15993 6.5124 2.5787 6.6522C3.41051 6.9299 4.5982 7.11111 5.94445 7.11111C7.29069 7.11111 8.47838 6.9299 9.31019 6.6522C9.72896 6.5124 10.0269 6.35819 10.2088 6.21406C10.2981 6.14331 10.3457 6.08571 10.3691 6.04729C10.3803 6.02894 10.385 6.01653 10.387 6.01001C10.3888 6.00391 10.3889 6.00105 10.3889 6V3.96881Z" fill="#808593"/>
<path d="M1.5 9.88889V7.86066C1.5 7.65305 1.72102 7.51617 1.91409 7.59251C2.01535 7.63255 2.11981 7.6704 2.22685 7.70613C3.20061 8.03122 4.51291 8.22222 5.94445 8.22222C7.37598 8.22222 8.68828 8.03122 9.66204 7.70613C9.76908 7.6704 9.87354 7.63255 9.9748 7.59251C10.1679 7.51617 10.3889 7.65305 10.3889 7.86066V9.88889C10.3889 9.88994 10.3888 9.89279 10.387 9.8989C10.385 9.90542 10.3803 9.91783 10.3691 9.93618C10.3457 9.9746 10.2981 10.0322 10.2088 10.1029C10.0269 10.2471 9.72896 10.4013 9.31019 10.5411C8.47838 10.8188 7.29069 11 5.94445 11C4.5982 11 3.41051 10.8188 2.5787 10.5411C2.15993 10.4013 1.86199 10.2471 1.6801 10.1029C1.59082 10.0322 1.54318 9.9746 1.51976 9.93618C1.50858 9.91783 1.50386 9.90542 1.50189 9.8989C1.50005 9.89279 1.5 9.88994 1.5 9.88889Z" fill="#808593"/>
</svg>
