<svg width="12" height="12" viewBox="0 0 12 12" fill="none" xmlns="http://www.w3.org/2000/svg">
<g clip-path="url(#clip0_1_34603)">
<g clip-path="url(#clip1_1_34603)">
<path d="M3.25 6.78571H0.892857C0.675888 6.78571 0.5 6.9616 0.5 7.17857V11.1071C0.5 11.3241 0.675888 11.5 0.892857 11.5H3.25C3.46697 11.5 3.64286 11.3241 3.64286 11.1071V7.17857C3.64286 6.9616 3.46697 6.78571 3.25 6.78571Z" fill="#A1A1A1"/>
<path d="M11.1071 3.64286H8.75C8.53303 3.64286 8.35714 3.81875 8.35714 4.03571V11.1071C8.35714 11.3241 8.53303 11.5 8.75 11.5H11.1071C11.3241 11.5 11.5 11.3241 11.5 11.1071V4.03571C11.5 3.81875 11.3241 3.64286 11.1071 3.64286Z" fill="#A1A1A1"/>
<path d="M7.17857 0.5H4.82143C4.60446 0.5 4.42857 0.675888 4.42857 0.892857V11.1071C4.42857 11.3241 4.60446 11.5 4.82143 11.5H7.17857C7.39554 11.5 7.57143 11.3241 7.57143 11.1071V0.892857C7.57143 0.675888 7.39554 0.5 7.17857 0.5Z" fill="#A1A1A1"/>
</g>
</g>
<defs>
<clipPath id="clip0_1_34603">
<rect width="12" height="12" fill="white"/>
</clipPath>
<clipPath id="clip1_1_34603">
<rect width="11" height="11" fill="white" transform="translate(0.5 0.5)"/>
</clipPath>
</defs>
</svg>
