<svg width="12" height="12" viewBox="0 0 12 12" fill="none" xmlns="http://www.w3.org/2000/svg">
<g clip-path="url(#clip0_1_34609)">
<path fill-rule="evenodd" clip-rule="evenodd" d="M9.643 7.98029C9.61359 7.8181 9.63344 7.65081 9.7 7.5C9.76338 7.35212 9.86862 7.22599 10.0028 7.13715C10.1369 7.04832 10.2941 7.00064 10.455 7H10.5C10.7652 7 11.0196 6.89464 11.2071 6.70711C11.3946 6.51957 11.5 6.26522 11.5 6C11.5 5.73478 11.3946 5.48043 11.2071 5.29289C11.0196 5.10536 10.7652 5 10.5 5H10.415C10.2541 4.99936 10.0969 4.95168 9.96277 4.86285C9.82862 4.77401 9.72338 4.64788 9.66 4.5V4.46C9.59344 4.30919 9.57359 4.1419 9.603 3.97971C9.63241 3.81751 9.70973 3.66784 9.825 3.55L9.855 3.52C9.94798 3.42713 10.0217 3.31684 10.0721 3.19544C10.1224 3.07404 10.1483 2.94392 10.1483 2.8125C10.1483 2.68108 10.1224 2.55096 10.0721 2.42956C10.0217 2.30816 9.94798 2.19787 9.855 2.105C9.76213 2.01202 9.65184 1.93826 9.53044 1.88794C9.40904 1.83762 9.27892 1.81171 9.1475 1.81171C9.01609 1.81171 8.88596 1.83762 8.76456 1.88794C8.64316 1.93826 8.53287 2.01202 8.44 2.105L8.41 2.135C8.29216 2.25027 8.14249 2.32759 7.98029 2.357C7.8181 2.38641 7.65081 2.36656 7.5 2.3C7.35212 2.23662 7.22599 2.13138 7.13715 1.99723C7.04832 1.86309 7.00064 1.70589 7 1.545V1.5C7 1.23478 6.89464 0.98043 6.70711 0.792893C6.51957 0.605357 6.26522 0.5 6 0.5C5.73478 0.5 5.48043 0.605357 5.29289 0.792893C5.10536 0.98043 5 1.23478 5 1.5V1.585C4.99936 1.74589 4.95168 1.90309 4.86285 2.03723C4.77401 2.17138 4.64788 2.27662 4.5 2.34H4.46C4.30919 2.40656 4.1419 2.42641 3.97971 2.397C3.81751 2.36759 3.66784 2.29027 3.55 2.175L3.52 2.145C3.42713 2.05202 3.31684 1.97826 3.19544 1.92794C3.07404 1.87762 2.94392 1.85171 2.8125 1.85171C2.68108 1.85171 2.55096 1.87762 2.42956 1.92794C2.30816 1.97826 2.19787 2.05202 2.105 2.145C2.01202 2.23787 1.93826 2.34816 1.88794 2.46956C1.83762 2.59096 1.81171 2.72108 1.81171 2.8525C1.81171 2.98392 1.83762 3.11404 1.88794 3.23544C1.93826 3.35684 2.01202 3.46713 2.105 3.56L2.135 3.59C2.25027 3.70784 2.32759 3.85751 2.357 4.01971C2.38641 4.1819 2.36656 4.34919 2.3 4.5C2.24286 4.65537 2.1403 4.78995 2.00565 4.88626C1.871 4.98256 1.7105 5.03613 1.545 5.04H1.5C1.23478 5.04 0.98043 5.14536 0.792893 5.33289C0.605357 5.52043 0.5 5.77478 0.5 6.04C0.5 6.30522 0.605357 6.55957 0.792893 6.74711C0.98043 6.93464 1.23478 7.04 1.5 7.04H1.585C1.74589 7.04064 1.90309 7.08832 2.03723 7.17715C2.17138 7.26599 2.27662 7.39212 2.34 7.54C2.40656 7.69081 2.42641 7.8581 2.397 8.02029C2.36759 8.18249 2.29027 8.33216 2.175 8.45L2.145 8.48C2.05202 8.57287 1.97826 8.68316 1.92794 8.80456C1.87762 8.92596 1.85171 9.05609 1.85171 9.1875C1.85171 9.31892 1.87762 9.44904 1.92794 9.57044C1.97826 9.69184 2.05202 9.80213 2.145 9.895C2.23787 9.98798 2.34816 10.0617 2.46956 10.1121C2.59096 10.1624 2.72108 10.1883 2.8525 10.1883C2.98392 10.1883 3.11404 10.1624 3.23544 10.1121C3.35684 10.0617 3.46713 9.98798 3.56 9.895L3.59 9.865C3.70784 9.74973 3.85751 9.67241 4.01971 9.643C4.1819 9.61359 4.34919 9.63344 4.5 9.7C4.65537 9.75714 4.78995 9.8597 4.88626 9.99435C4.98256 10.129 5.03613 10.2895 5.04 10.455V10.5C5.04 10.7652 5.14536 11.0196 5.33289 11.2071C5.52043 11.3946 5.77478 11.5 6.04 11.5C6.30522 11.5 6.55957 11.3946 6.74711 11.2071C6.93464 11.0196 7.04 10.7652 7.04 10.5V10.415C7.04064 10.2541 7.08832 10.0969 7.17715 9.96277C7.26599 9.82862 7.39212 9.72338 7.54 9.66C7.69081 9.59344 7.8581 9.57359 8.02029 9.603C8.18249 9.63241 8.33216 9.70973 8.45 9.825L8.48 9.855C8.57287 9.94798 8.68316 10.0217 8.80456 10.0721C8.92596 10.1224 9.05609 10.1483 9.1875 10.1483C9.31892 10.1483 9.44904 10.1224 9.57044 10.0721C9.69184 10.0217 9.80213 9.94798 9.895 9.855C9.98798 9.76213 10.0617 9.65184 10.1121 9.53044C10.1624 9.40904 10.1883 9.27892 10.1883 9.1475C10.1883 9.01609 10.1624 8.88596 10.1121 8.76456C10.0617 8.64316 9.98798 8.53287 9.895 8.44L9.865 8.41C9.74973 8.29216 9.67241 8.14249 9.643 7.98029ZM7.83333 6C7.83333 7.01252 7.01252 7.83333 6 7.83333C4.98748 7.83333 4.16667 7.01252 4.16667 6C4.16667 4.98748 4.98748 4.16667 6 4.16667C7.01252 4.16667 7.83333 4.98748 7.83333 6Z" fill="#A1A1A1"/>
</g>
<defs>
<clipPath id="clip0_1_34609">
<rect width="12" height="12" fill="white"/>
</clipPath>
</defs>
</svg>
